# xmcd
#
# Track frame offsets: 
#        150
#        9635
#        18002
#        33875
#        43620
#        57947
#        70257
#        81648
#        94406
#        111515
#        121527
#        132675
#        142209
#        155007
#        166650
#        178899
#        192912
#        203352
#        213621
#        224601
#
# Disc length: 3250 seconds
#
# Revision: 1
# Processed by: cddbd v1.5.2PL0 Copyright (c) Steve Scherf et al.
# Submitted via: ExactAudioCopy v0.99pb5
#
DISCID=2b0cb014
DTITLE=Karl Denver - Sings Country
DYEAR=2001
DGENRE=Country
TTITLE0=Am I That Easy To Forget
TTITLE1=Californian Zephyr
TTITLE2=Careless Love
TTITLE3=China Doll
TTITLE4=Don't Talk Of Love
TTITLE5=Dry Eyes
TTITLE6=Irish Eyes
TTITLE7=Is This The Meaning
TTITLE8=Let Me Come In
TTITLE9=Lonesome Traveller
TTITLE10=Love Me With All Your Heart
TTITLE11=Love Walked In
TTITLE12=Marcheta
TTITLE13=Maybe
TTITLE14=Mexican Rose
TTITLE15=My Lovely World And You
TTITLE16=Snow Show Thompson
TTITLE17=Still
TTITLE18=Wimeweh
TTITLE19=Yelle
EXTD=
EXTT0=
EXTT1=
EXTT2=
EXTT3=
EXTT4=
EXTT5=
EXTT6=
EXTT7=
EXTT8=
EXTT9=
EXTT10=
EXTT11=
EXTT12=
EXTT13=
EXTT14=
EXTT15=
EXTT16=
EXTT17=
EXTT18=
EXTT19=
PLAYORDER=
